<?xml version="1.0" encoding="utf-8"?>
<!-- Generator: Adobe Illustrator 16.0.0, SVG Export Plug-In . SVG Version: 6.00 Build 0)  -->
<!DOCTYPE svg PUBLIC "-//W3C//DTD SVG 1.1//EN" "http://www.w3.org/Graphics/SVG/1.1/DTD/svg11.dtd">
<svg version="1.1" id="Capa_1" xmlns="http://www.w3.org/2000/svg" xmlns:xlink="http://www.w3.org/1999/xlink" x="0px" y="0px"
	 width="106.061px" height="106.061px" viewBox="0 0 106.061 106.061" enable-background="new 0 0 106.061 106.061"
	 xml:space="preserve">
<g>
	<path fill="#fff" d="M39.441,45.873c-2.258,0-4.09-2.775-4.09-6.202c0-3.425,1.832-6.2,4.09-6.2s4.09,2.775,4.09,6.2
		C43.531,43.096,41.699,45.873,39.441,45.873z M71.649,39.671c0,3.427-1.832,6.202-4.091,6.202s-4.091-2.775-4.091-6.202
		c0-3.425,1.832-6.2,4.091-6.2S71.649,36.246,71.649,39.671z M65.863,71.17c0,8.184-5.755,14.84-12.833,14.84
		s-12.833-6.656-12.833-14.84c0-8.182,5.755-14.835,12.833-14.835S65.863,62.988,65.863,71.17z M72.724,24.547
		c0.545,1.648-0.352,3.433-1.999,3.979l-16.682,5.521c-0.193,0.064-0.395,0.11-0.601,0.139c-0.027,0.004-0.055,0.012-0.082,0.015
		c-0.109,0.013-0.222,0.008-0.334,0.007c-0.11,0.001-0.22,0.006-0.328-0.006c-0.029-0.003-0.058-0.012-0.087-0.016
		c-0.202-0.026-0.399-0.071-0.591-0.137l-16.687-5.521c-1.648-0.546-2.544-2.326-1.999-3.977c0.546-1.649,2.325-2.546,3.979-1.999
		l15.717,5.199l15.715-5.2C70.397,22.003,72.178,22.897,72.724,24.547z"/>
</g>
</svg>
