<?xml version="1.0" encoding="utf-8"?>
<!-- Generator: Adobe Illustrator 16.0.0, SVG Export Plug-In . SVG Version: 6.00 Build 0)  -->
<!DOCTYPE svg PUBLIC "-//W3C//DTD SVG 1.1//EN" "http://www.w3.org/Graphics/SVG/1.1/DTD/svg11.dtd">
<svg version="1.1" id="Capa_1" xmlns="http://www.w3.org/2000/svg" xmlns:xlink="http://www.w3.org/1999/xlink" x="0px" y="0px"
	 width="106.059px" height="106.059px" viewBox="0 0 106.059 106.059" enable-background="new 0 0 106.059 106.059"
	 xml:space="preserve">
<g>
	<path fill="#fff" d="M21.302,84.76 M84.757,84.757 M27,69.865c0,0-2.958-11.438,6.705-8.874c0,0,17.144,9.295,38.65,0
		c9.662-2.563,6.705,8.874,6.705,8.874C73.539,86.824,53.03,85.444,53.03,85.444S32.521,86.824,27,69.865z M33.24,38.671
		c0-3.424,2.776-6.201,6.2-6.201c3.423,0,6.2,2.777,6.2,6.201c0,3.426-2.777,6.203-6.2,6.203
		C36.017,44.874,33.24,42.096,33.24,38.671z M61.357,38.671c0-3.424,2.779-6.201,6.203-6.201c3.423,0,6.2,2.777,6.2,6.201
		c0,3.426-2.776,6.203-6.2,6.203S61.357,42.096,61.357,38.671z"/>
</g>
</svg>
