<?xml version="1.0" encoding="utf-8"?>
<!-- Generator: Adobe Illustrator 16.0.0, SVG Export Plug-In . SVG Version: 6.00 Build 0)  -->
<!DOCTYPE svg PUBLIC "-//W3C//DTD SVG 1.1//EN" "http://www.w3.org/Graphics/SVG/1.1/DTD/svg11.dtd">
<svg version="1.1" id="Capa_1" xmlns="http://www.w3.org/2000/svg" xmlns:xlink="http://www.w3.org/1999/xlink" x="0px" y="0px"
	 width="106.059px" height="106.059px" viewBox="0 0 106.059 106.059" enable-background="new 0 0 106.059 106.059"
	 xml:space="preserve">
<g>
	<path fill="#e5e5e5" d="M33.24,38.671c0-3.424,2.776-6.201,6.2-6.201c3.423,0,6.2,2.776,6.2,6.201c0,3.426-2.777,6.202-6.2,6.202
		C36.017,44.873,33.24,42.097,33.24,38.671z M61.357,38.671c0-3.424,2.779-6.201,6.203-6.201c3.423,0,6.2,2.776,6.2,6.201
		c0,3.426-2.776,6.202-6.2,6.202S61.357,42.097,61.357,38.671z M76.017,64.068c-3.843,8.888-12.843,14.629-22.927,14.629
		c-10.301,0-19.354-5.771-23.064-14.702c-0.636-1.529,0.09-3.285,1.62-3.921c0.376-0.155,0.767-0.229,1.15-0.229
		c1.176,0,2.292,0.695,2.771,1.85c2.777,6.687,9.655,11.005,17.523,11.005c7.689,0,14.528-4.321,17.42-11.012
		c0.658-1.521,2.424-2.222,3.944-1.562C75.974,60.783,76.675,62.548,76.017,64.068z"/>
</g>
</svg>
