<?xml version="1.0" encoding="utf-8"?>
<!-- Generator: Adobe Illustrator 16.0.0, SVG Export Plug-In . SVG Version: 6.00 Build 0)  -->
<!DOCTYPE svg PUBLIC "-//W3C//DTD SVG 1.1//EN" "http://www.w3.org/Graphics/SVG/1.1/DTD/svg11.dtd">
<svg version="1.1" id="Capa_1" xmlns="http://www.w3.org/2000/svg" xmlns:xlink="http://www.w3.org/1999/xlink" x="0px" y="0px"
	 width="106.059px" height="106.059px" viewBox="0 0 106.059 106.059" enable-background="new 0 0 106.059 106.059"
	 xml:space="preserve">
<g>
	<path fill="#fff" d="M15.517,90.547 M84.759,21.302 M21.302,21.3 M84.757,84.758 M77.017,74.001c0.658,1.521-0.042,3.286-1.562,3.942
		c-1.521,0.66-3.286-0.042-3.944-1.562C68.618,69.693,61.781,65.37,54.09,65.37c-7.868,0-14.747,4.318-17.522,11.004
		c-0.479,1.153-1.596,1.851-2.771,1.851c-0.384,0-0.773-0.074-1.15-0.229c-1.529-0.637-2.255-2.393-1.62-3.921
		c3.71-8.933,12.765-14.703,23.063-14.703C64.174,59.371,73.174,65.113,77.017,74.001z M33.24,38.671c0-3.424,2.776-6.201,6.2-6.201
		c3.423,0,6.2,2.776,6.2,6.201c0,3.426-2.777,6.202-6.2,6.202C36.017,44.873,33.24,42.097,33.24,38.671z M61.357,38.671
		c0-3.424,2.779-6.201,6.203-6.201c3.423,0,6.2,2.776,6.2,6.201c0,3.426-2.776,6.202-6.2,6.202S61.357,42.097,61.357,38.671z"/>
</g>
</svg>
