<?xml version="1.0" encoding="iso-8859-1"?>
<!-- Generator: Adobe Illustrator 16.0.0, SVG Export Plug-In . SVG Version: 6.00 Build 0)  -->
<!DOCTYPE svg PUBLIC "-//W3C//DTD SVG 1.1//EN" "http://www.w3.org/Graphics/SVG/1.1/DTD/svg11.dtd">
<svg fill="#E5E5E5" version="1.1" id="Capa_1" xmlns="http://www.w3.org/2000/svg" xmlns:xlink="http://www.w3.org/1999/xlink" x="0px" y="0px"
	 width="512px" height="512px" viewBox="0 0 512 512" style="enable-background:new 0 0 512 512;" xml:space="preserve">
<g>
	<path d="M512,335.5c0,35.344-28.656,64-64,64v0.5H176c-44.188,0-80-35.812-80-80c0-38.75,27.563-71.063,64.156-78.406
		c0-0.531-0.156-1.031-0.156-1.594c0-53.031,42.969-96,96-96c37.438,0,69.5,21.625,85.344,52.875
		C349.719,193.937,358.594,192,368,192c43.844,0,79.344,35.25,79.906,79H448v0.5C483.344,271.5,512,300.156,512,335.5z
		 M129.906,217.938c7.406-42.563,36.156-77.594,74.563-94.625C191.188,116.219,176.156,112,160,112c-53.031,0-96,42.969-96,96
		c0,0.563,0.156,1.063,0.156,1.594C27.563,216.938,0,249.25,0,288c0,42.469,33.188,76.844,74.938,79.5
		C68.125,353.031,64,337.031,64,320C64,275.438,90.594,235.75,129.906,217.938z"/>
</g>
<g>
</g>
<g>
</g>
<g>
</g>
<g>
</g>
<g>
</g>
<g>
</g>
<g>
</g>
<g>
</g>
<g>
</g>
<g>
</g>
<g>
</g>
<g>
</g>
<g>
</g>
<g>
</g>
<g>
</g>
</svg>
